<?xml version="1.0" encoding="UTF-8"?> <svg xmlns="http://www.w3.org/2000/svg" width="177" height="40" viewBox="0 0 177 40" fill="none"><g clip-path="url(#clip0_729_813)"><path d="M13.1493 7.58031H3.85964C2.84323 7.43263 2.02277 7.07438 1.39709 6.50592C0.77219 5.93767 0.459643 5.22638 0.459643 4.37419V3.57716C0.459643 2.72419 0.781114 1.99529 1.42503 1.38967C2.06972 0.78445 2.86224 0.48116 3.80395 0.48116L18.0544 0.46258V3.31722L5.30868 3.33599V4.98541H14.5803C15.5958 5.08431 16.4283 5.36844 17.0792 5.83818C17.7293 6.30773 18.0544 6.96928 18.0544 7.82166V9.21173C18.0544 10.0771 17.7198 10.8122 17.051 11.4176C16.3815 12.0234 15.5832 12.3259 14.6542 12.3259H0.441406V9.55063L13.1493 9.56379V7.58031Z" fill="#214670"></path><path d="M36.541 1.38948C37.1603 1.99509 37.4701 2.73038 37.4701 3.59516V9.21153C37.4701 10.0769 37.1605 10.812 36.541 11.4174C35.922 12.0232 35.1725 12.3257 34.2931 12.3257H23.1264C22.2593 12.3257 21.5192 12.0232 20.9057 11.4174C20.2929 10.812 19.9863 10.0767 19.9863 9.21153V3.59535C19.9863 2.73038 20.2929 1.99529 20.9057 1.38968C21.5194 0.784451 22.2593 0.481161 23.1264 0.481161H34.2931C35.1725 0.480967 35.922 0.784257 36.541 1.38948ZM32.9554 3.30793H24.4829V9.55063H32.9554V3.30793Z" fill="#214670"></path><path d="M52.3899 0.480967H56.9235V9.21153C56.9235 10.0769 56.6168 10.812 56.0029 11.4174C55.39 12.0232 54.6563 12.3257 53.8017 12.3257H46.63H42.5795C41.6874 12.3257 40.9318 12.017 40.3125 11.399C39.693 10.7814 39.3838 10.0273 39.3838 9.13721L39.421 7.48799L39.4395 0.480967H43.917V9.55044H52.4266L52.3899 0.480967Z" fill="#214670"></path><path d="M63.3519 12.3259H58.7256V0.480967H72.4563C73.3352 0.480967 74.0908 0.784257 74.7227 1.38948C75.3542 1.99509 75.6703 2.73038 75.6703 3.59516V4.98541C75.6703 5.69012 75.4471 6.31993 75.0009 6.87618C74.5551 7.43244 73.7996 7.7907 72.7351 7.95115L88.6213 28.3525L146.932 28.4394L149.361 31.5545H86.163L66.5666 5.31909H71.0253V3.33599H63.3519V12.3259Z" fill="#214670"></path><path d="M82.6559 9.55973H91.147H95.5879V12.3259H81.281C80.4266 12.3259 79.6922 12.0234 79.0788 11.4176C78.4653 10.8122 78.1592 10.0769 78.1592 9.21173V3.59535C78.1592 2.73038 78.4653 1.99529 79.0788 1.38968C79.6922 0.78445 80.4266 0.481161 81.281 0.481161H95.6434L95.6248 3.32283H82.6559V9.55973Z" fill="#214670"></path><path d="M102.035 5.05993L114.15 5.11528V7.63605L102.035 7.58012V9.55953H110.526H114.967L115.022 12.3257H100.66C99.806 12.3257 99.0717 12.0232 98.4587 11.4174C97.8454 10.812 97.5391 10.0767 97.5391 9.21153V3.59535C97.5391 2.73038 97.8454 1.99529 98.4587 1.38968C99.0717 0.78445 99.8058 0.481161 100.66 0.481161H115.022L114.967 3.42851H102.035L102.035 5.05993Z" fill="#214670"></path><path d="M97.2739 16.4746C98.3606 17.0806 99.2388 17.8155 99.9066 18.6807L104.243 24.2967C104.912 25.1618 105.17 25.8975 105.018 26.5027C104.867 27.1083 104.352 27.4107 103.471 27.4107H92.3052C91.438 27.4107 90.4638 27.1083 89.383 26.5027C88.3026 25.8973 87.4276 25.1616 86.7596 24.2967L82.4228 18.6807C81.7548 17.8155 81.4931 17.0806 81.6386 16.4746C81.7841 15.8694 82.2901 15.5663 83.1577 15.5663H94.3242C95.2037 15.5663 96.1869 15.8694 97.2739 16.4746ZM95.2628 18.5138H86.7915L91.3856 24.4637H99.8575L95.2628 18.5138Z" fill="#8E959C"></path><path d="M114.734 18.5138H106.225L113.097 27.4109H108.618L103.188 20.4042L101.729 18.5138L99.4707 15.5663H113.833C114.688 15.5663 115.655 15.8694 116.736 16.4746C117.817 17.0806 118.692 17.8155 119.359 18.6807L126.102 27.4109H121.568L114.734 18.5138Z" fill="#8E959C"></path><path d="M126.864 20.1451L139.02 20.2006L140.967 22.7214L128.809 22.6658L130.198 24.4637H138.689L143.117 24.4447L145.462 27.4107H131.1C130.245 27.4107 129.277 27.1083 128.196 26.5027C127.116 25.8973 126.242 25.1616 125.574 24.2967L121.236 18.6807C120.568 17.8155 120.306 17.0806 120.452 16.4746C120.598 15.8694 121.098 15.5663 121.952 15.5663H136.314L138.535 18.5138H125.604L126.864 20.1451Z" fill="#8E959C"></path><path d="M97.7931 15.6135C98.8793 16.2189 99.7572 16.9538 100.425 17.8194L104.762 23.4356C105.431 24.3009 105.688 25.036 105.537 25.6411C105.386 26.2471 104.87 26.5498 103.99 26.5498H92.8236C91.9563 26.5498 90.9824 26.2471 89.9014 25.6411C88.821 25.036 87.9464 24.3009 87.2784 23.4356L82.9412 17.8194C82.2736 16.9538 82.0119 16.2189 82.157 15.6135C82.3025 15.0081 82.8085 14.7052 83.6763 14.7052H94.8422C95.7218 14.7052 96.7051 15.0081 97.7931 15.6135ZM95.7816 17.6527H87.3097L91.9036 23.602H100.376L95.7816 17.6527Z" fill="#FDE92D"></path><path d="M103.99 26.808H92.8236C91.9152 26.808 90.8895 26.4912 89.7745 25.8662C88.6683 25.2466 87.7594 24.4819 87.0734 23.5932L82.7361 17.977C82.0113 17.0373 81.7397 16.2445 81.9054 15.5536C82.0266 15.0488 82.4325 14.4472 83.6763 14.4472H94.8422C95.7618 14.4472 96.797 14.7639 97.919 15.3883C99.0324 16.0088 99.9442 16.7739 100.63 17.6623L104.967 23.2783C105.683 24.2044 105.959 25.0206 105.788 25.7038C105.662 26.2074 105.248 26.808 103.99 26.808ZM83.6763 14.9634C82.693 14.9634 82.482 15.3689 82.4086 15.6738C82.2833 16.1961 82.5314 16.865 83.1461 17.6619L87.4833 23.2779C88.1266 24.1113 88.983 24.8305 90.0279 25.4158C91.0647 25.997 92.005 26.2914 92.8236 26.2914H103.99C104.992 26.2914 105.209 25.8846 105.286 25.5782C105.417 25.0558 105.171 24.3879 104.557 23.5928L100.22 17.9766C99.5774 17.1441 98.7185 16.4247 97.6668 15.8385C96.623 15.2576 95.6728 14.963 94.8422 14.963H83.6763V14.9634ZM100.902 23.8601H91.7759L86.7833 17.3944H95.9087L100.902 23.8601ZM92.0307 23.3439H99.8505L95.6543 17.9108H87.8354L92.0307 23.3439Z" fill="#214670"></path><path d="M115.253 17.6527H106.744L113.615 26.5498H109.137L103.707 19.5427L102.247 17.6526L99.9893 14.705H114.351C115.206 14.705 116.174 15.0079 117.254 15.6133C118.336 16.2187 119.21 16.9536 119.877 17.8192L126.621 26.5496H122.087L115.253 17.6527Z" fill="#FDE92D"></path><path d="M127.147 26.808H121.959L115.125 17.9107H107.27L114.141 26.808H109.01L102.042 17.8103L99.4658 14.447H114.351C115.246 14.447 116.266 14.7638 117.381 15.3884C118.488 16.0082 119.397 16.7733 120.082 17.662L127.147 26.808ZM122.214 26.2916H126.095L119.672 17.9769C119.03 17.1435 118.174 16.4243 117.128 15.8388C116.091 15.258 115.157 14.9634 114.351 14.9634H100.513L102.453 17.496L103.912 19.3854L109.264 26.2918H113.089L106.218 17.3947H115.381L122.214 26.2916Z" fill="#214670"></path><path d="M127.382 19.2836L139.539 19.3391L141.486 21.8597L129.328 21.804L130.717 23.602H139.207L143.635 23.5834L145.981 26.5498H131.619C130.765 26.5498 129.796 26.2471 128.715 25.6411C127.635 25.036 126.761 24.3009 126.092 23.4356L121.754 17.8194C121.087 16.9538 120.825 16.2189 120.971 15.6135C121.116 15.0081 121.616 14.7052 122.471 14.7052H136.833L139.054 17.6527H126.122L127.382 19.2836Z" fill="#FDE92D"></path><path d="M146.514 26.808H131.619C130.723 26.808 129.704 26.4911 128.588 25.8662C127.483 25.2468 126.574 24.4823 125.887 23.5931L121.549 17.9769C120.824 17.0367 120.553 16.2439 120.719 15.5531C120.841 15.0487 121.243 14.4472 122.471 14.4472H136.962L139.572 17.9109H126.648L127.51 19.0262L139.666 19.0817L142.014 22.1204L129.856 22.0645L130.845 23.3438H139.207L143.76 23.3249L146.514 26.808ZM122.471 14.9634C121.505 14.9634 121.296 15.3689 121.222 15.6739C121.097 16.1959 121.344 16.8648 121.96 17.662L126.297 23.278C126.941 24.1116 127.797 24.8309 128.842 25.416C129.878 25.9972 130.813 26.2916 131.619 26.2916H145.446L143.51 23.8422L139.208 23.8602H130.589L128.8 21.5434L140.957 21.5992L139.41 19.5967L127.254 19.5412L125.596 17.3946H138.536L136.704 14.9634H122.471Z" fill="#214670"></path><path d="M153.529 31.5599L135.727 6.83302H132.504C131.786 6.83302 130.988 6.61779 130.131 6.19315C129.297 5.77993 128.57 5.24922 127.971 4.61573C127.074 3.66812 126.688 2.80374 126.791 1.97264C126.847 1.52342 127.156 0.480773 128.81 0.480773H149.851L172.189 31.5489L153.529 31.5599ZM128.81 1.734C128.086 1.734 128.055 1.98 128.037 2.12709C127.984 2.55116 128.277 3.11477 128.884 3.75561C129.381 4.28109 129.988 4.72354 130.69 5.07077C131.371 5.4087 131.982 5.5798 132.504 5.5798H136.372L154.173 30.3059L169.743 30.297L149.207 1.734H128.81Z" fill="#214670"></path><path d="M70.2519 14.447H61.2754L73.7408 31.5545L82.7274 31.5487L70.2519 14.447Z" fill="#8E959C"></path><path d="M9.90039 14.447L22.3652 31.5547L25.9303 31.5478L13.4564 14.447H9.90039Z" fill="#8E959C"></path><path d="M0.446289 14.447L12.9115 31.5551L15.2251 31.5466L2.75111 14.447H0.446289Z" fill="#8E959C"></path><path d="M50.999 14.447L63.4644 31.5545L71.826 31.5485L59.3505 14.447H50.999Z" fill="#8E959C"></path><path d="M40.7246 14.447L53.1904 31.5545L60.3 31.5485L47.8251 14.447H40.7246Z" fill="#8E959C"></path><path d="M30.4502 14.447L42.8118 31.413L42.9152 31.5545L48.7748 31.5483L36.2995 14.447H30.4502Z" fill="#8E959C"></path><path d="M20.1758 14.447L32.5372 31.413L32.6406 31.5545L37.2487 31.5481L24.7738 14.447H20.1758Z" fill="#8E959C"></path><path d="M100.504 38.5857C99.8797 38.589 98.2749 38.595 98.2743 38.595H93.2421L92.2022 37.09C93.6437 37.0958 98.621 37.1138 99.0245 37.1163C98.841 36.8508 98.6016 36.5051 98.4198 36.2413C98.0207 36.2392 93.0402 36.2212 91.5979 36.2154L90.617 34.7961C90.617 34.7961 97.4046 34.7961 97.8857 34.7961C97.689 34.5042 97.3421 33.9872 97.1405 33.6863C96.6386 33.6863 89.3414 33.6863 89.3414 33.6863C88.9299 33.6863 88.6823 33.8258 88.5848 34.1127C88.4872 34.3989 88.5778 34.7372 88.8606 35.1464L91.0013 38.2455C91.285 38.6541 91.6617 38.9924 92.1547 39.2788C92.6486 39.5653 93.0887 39.7052 93.5007 39.7052C93.5007 39.7052 100.797 39.7052 101.299 39.7052C101.084 39.4033 100.713 38.8799 100.504 38.5857Z" fill="#214670"></path><path d="M105.518 33.6863C105.286 33.6863 103.836 33.6863 103.224 33.6863C104.097 34.3608 110.72 39.4763 111.016 39.7052C111.259 39.7052 112.726 39.7052 112.969 39.7052C112.95 39.4763 112.503 34.361 112.443 33.6863C111.831 33.6863 110.379 33.6863 110.148 33.6863C110.178 33.9327 110.639 37.763 110.639 37.763C110.639 37.763 105.83 33.9344 105.518 33.6863Z" fill="#214670"></path><path d="M130.116 38.5857C129.492 38.589 127.887 38.595 127.887 38.595H122.854L121.815 37.0912C123.659 37.0981 128.261 37.1138 128.637 37.1161C128.453 36.8506 128.214 36.5049 128.033 36.2411C127.66 36.239 123.056 36.2233 121.211 36.2165L120.23 34.7959C120.23 34.7959 127.016 34.7959 127.497 34.7959C127.302 34.504 126.954 33.987 126.751 33.6861C126.25 33.6861 118.953 33.6861 118.953 33.6861C118.541 33.6861 118.294 33.8256 118.197 34.1125C118.1 34.3987 118.19 34.737 118.473 35.1462L120.614 38.2453C120.896 38.6539 121.273 38.9922 121.766 39.2786C122.26 39.5651 122.7 39.705 123.113 39.705C123.113 39.705 130.409 39.705 130.911 39.705C130.697 39.4033 130.325 38.8799 130.116 38.5857Z" fill="#214670"></path><path d="M140.796 33.6863C140.796 33.6863 133.48 33.6863 132.99 33.6863C133.304 34.1438 133.927 35.0545 133.927 35.0545L134.648 36.0967C134.648 36.0967 136.839 39.2562 137.15 39.7052C137.523 39.7052 138.767 39.7052 139.14 39.7052C138.819 39.2415 135.748 34.7963 135.748 34.7963H141.055C141.055 34.7963 144.107 39.2403 144.426 39.7052C144.802 39.7052 146.071 39.7052 146.444 39.7052C146.125 39.2428 143.295 35.1464 143.295 35.1464C143.012 34.7372 142.635 34.3993 142.142 34.1127C141.648 33.8258 141.208 33.6863 140.796 33.6863Z" fill="#214670"></path><path d="M156.175 39.7052C156.563 39.7052 158.068 39.7052 158.456 39.7052C158.136 39.2415 155.064 34.7963 155.064 34.7963C155.064 34.7963 158.089 34.7963 158.539 34.7963C158.334 34.4997 157.977 33.983 157.772 33.6865C157.287 33.6865 149.047 33.6865 148.562 33.6865C148.767 33.983 149.124 34.4997 149.329 34.7963C149.779 34.7963 152.784 34.7963 152.784 34.7963C152.784 34.7963 155.855 39.2413 156.175 39.7052Z" fill="#214670"></path><path d="M173.996 34.7351C173.795 34.4452 173.471 33.977 173.271 33.6863C171.922 33.6884 165.531 33.6863 165.53 33.6863C165.067 33.6863 164.786 33.8272 164.672 34.1171C164.56 34.403 164.64 34.7367 164.916 35.1361L165.22 35.5763C165.496 35.9742 165.862 36.2963 166.342 36.561C166.844 36.8382 167.385 37.0159 167.911 37.0871H173.393L174.506 38.6984C174.506 38.6984 167.838 38.6701 167.346 38.6684C167.546 38.9562 167.864 39.418 168.062 39.7052C168.555 39.7052 175.783 39.7052 175.783 39.7052C176.242 39.7052 176.525 39.5632 176.651 39.2707C176.776 38.9852 176.7 38.6502 176.42 38.2455L175.891 37.4779C175.624 37.0923 175.28 36.8028 174.841 36.5932C174.356 36.3623 173.828 36.2198 173.3 36.1716H167.829L166.843 34.7457C166.843 34.7457 173.508 34.7359 173.996 34.7351Z" fill="#214670"></path></g><defs><clipPath id="clip0_729_813"><rect width="177" height="40" fill="white"></rect></clipPath></defs></svg> 